<svg width="27" height="30" viewBox="0 0 27 30" fill="none" xmlns="http://www.w3.org/2000/svg">
<path d="M0.0625 8H6V30H0.0625V8ZM18.1875 8C17.0833 8 16.224 8.20312 15.6094 8.60938C14.9948 9.01562 14.4583 9.39583 14 9.75V8H8.03125V30H14V16.1562C14 16.1562 14.099 15.6979 14.2969 14.7812C14.4948 13.8646 15.4271 13.4062 17.0938 13.4062C18.0938 13.4062 18.8281 13.6615 19.2969 14.1719C19.7656 14.6823 20 15.3438 20 16.1562V30H26.2812V16.3438C26.2812 14.4688 25.9583 12.9792 25.3125 11.875C24.6667 10.7708 23.901 9.93229 23.0156 9.35938C22.1302 8.78646 21.2292 8.41667 20.3125 8.25C19.3958 8.08333 18.6875 8 18.1875 8ZM0 3C0 3.83333 0.291667 4.54167 0.875 5.125C1.45833 5.70833 2.16667 6 3 6C3.83333 6 4.54167 5.70833 5.125 5.125C5.70833 4.54167 6 3.83333 6 3C6 2.16667 5.70833 1.45833 5.125 0.875C4.54167 0.291667 3.83333 0 3 0C2.16667 0 1.45833 0.291667 0.875 0.875C0.291667 1.45833 0 2.16667 0 3Z" fill="white"/>
</svg>
