<svg width="315" height="96" viewBox="0 0 315 96" fill="none" xmlns="http://www.w3.org/2000/svg">
<path d="M24.9088 72.8492H10.7486L8.40553 79.6236H0.917969L13.7029 44.0195H22.0055L34.7904 79.6236H27.2519L24.9088 72.8492ZM22.9733 67.1444L17.8288 52.2711L12.6841 67.1444H22.9733ZM47.235 44.0705V66.0747C47.235 68.4856 47.8631 70.3365 49.1196 71.6267C50.3761 72.8832 52.1417 73.5114 54.4169 73.5114C56.7259 73.5114 58.5086 72.8832 59.7652 71.6267C61.0217 70.3365 61.6498 68.4856 61.6498 66.0747V44.0705H68.8317V66.0238C68.8317 69.0459 68.1696 71.6099 66.8452 73.7151C65.555 75.7866 63.806 77.3484 61.5989 78.4012C59.4255 79.454 56.9978 79.9802 54.315 79.9802C51.6664 79.9802 49.2555 79.454 47.0821 78.4012C44.9428 77.3484 43.2451 75.7866 41.9886 73.7151C40.732 71.6099 40.1039 69.0459 40.1039 66.0238V44.0705H47.235ZM100.553 44.0705V49.8262H91.0786V79.6236H83.9476V49.8262H74.4735V44.0705H100.553ZM238.074 44.0705V79.6236H230.943V64.4957H215.713V79.6236H208.582V44.0705H215.713V58.689H230.943V44.0705H238.074ZM252.861 44.0705V79.6236H245.73V44.0705H252.861ZM278.88 79.6236L271.036 65.7691H267.674V79.6236H260.543V44.0705H273.888C276.639 44.0705 278.982 44.563 280.917 45.5476C282.853 46.4985 284.296 47.8056 285.247 49.4697C286.232 51.0996 286.724 52.9333 286.724 54.9707C286.724 57.3138 286.045 59.4362 284.687 61.3377C283.328 63.2054 281.308 64.4957 278.625 65.2088L287.131 79.6236H278.88ZM267.674 60.4208H273.634C275.569 60.4208 277.012 59.9624 277.963 59.0456C278.914 58.0947 279.389 56.7875 279.389 55.1235C279.389 53.4936 278.914 52.2371 277.963 51.3543C277.012 50.4374 275.569 49.979 273.634 49.979H267.674V60.4208ZM300.941 49.8262V58.74H312.911V64.3938H300.941V73.817H314.439V79.6236H293.81V44.0195H314.439V49.8262H300.941Z" fill="#FF1049"/>
<path d="M153.725 93.95C179.219 93.95 199.886 73.2832 199.886 47.7894C199.886 22.2957 179.219 1.62891 153.725 1.62891C128.231 1.62891 107.564 22.2957 107.564 47.7894C107.564 73.2832 128.231 93.95 153.725 93.95Z" stroke="#00D1FF" stroke-width="3"/>
</svg>
